<?xml version="1.0" standalone="no"?>
<!DOCTYPE svg PUBLIC "-//W3C//DTD SVG 20010904//EN"
 "http://www.w3.org/TR/2001/REC-SVG-20010904/DTD/svg10.dtd">
<svg version="1.0" xmlns="http://www.w3.org/2000/svg"
 width="335.000000pt" height="335.000000pt" viewBox="0 0 335.000000 335.000000"
 preserveAspectRatio="xMidYMid meet">
<metadata>
Created by potrace 1.11, written by Peter Selinger 2001-2013
</metadata>
<g transform="translate(0.000000,335.000000) scale(0.100000,-0.100000)"
fill="#000000" stroke="none">
<path d="M0 1716 c0 -1184 2 -1355 15 -1360 20 -7 19 -36 0 -36 -8 0 -15 -9
-15 -20 0 -18 7 -20 64 -20 l64 0 6 33 c3 18 15 38 27 45 32 20 37 3 7 -22
-30 -23 -38 -52 -13 -42 8 3 15 1 15 -4 0 -6 80 -10 206 -10 161 0 204 3 198
13 -6 9 -4 9 7 -1 10 -9 302 -12 1391 -12 l1378 0 0 1395 0 1395 -1675 0
-1675 0 0 -1354z m2368 1243 c-2 -6 -8 -10 -13 -10 -5 0 -11 4 -13 10 -2 6 4
11 13 11 9 0 15 -5 13 -11z m-763 -204 c108 -23 154 -38 270 -95 225 -108 396
-278 509 -506 176 -355 149 -781 -71 -1112 -152 -229 -387 -396 -650 -463
-121 -31 -333 -52 -333 -33 0 6 15 11 34 12 56 4 191 48 291 96 307 145 536
436 604 766 21 99 22 400 2 485 -101 430 -428 755 -853 850 -43 9 -78 19 -78
23 0 10 194 -7 275 -23z m-975 -115 c0 -5 -4 -10 -10 -10 -5 0 -10 5 -10 10 0
6 5 10 10 10 6 0 10 -4 10 -10z m1900 -110 c0 -5 -5 -10 -11 -10 -5 0 -7 5 -4
10 3 6 8 10 11 10 2 0 4 -4 4 -10z m-1214 -39 c51 -8 106 -26 203 -68 10 -5
12 0 6 17 l-7 22 41 -23 c22 -12 72 -47 111 -76 46 -35 70 -48 70 -38 0 22 12
19 57 -14 45 -33 92 -89 121 -146 42 -84 83 -240 92 -356 10 -122 7 -173 -15
-229 -8 -19 -16 -51 -19 -71 -4 -20 -25 -74 -47 -120 l-42 -84 -12 28 c-12 28
-13 27 -55 -77 -24 -58 -45 -106 -46 -106 -2 0 -8 18 -14 40 -6 22 -14 40 -18
40 -4 0 -30 -44 -57 -98 -37 -73 -50 -91 -53 -74 -2 12 -7 22 -12 22 -9 0 -80
-111 -119 -185 l-21 -40 6 110 5 110 -41 -75 c-23 -41 -55 -104 -72 -140 l-30
-65 -14 60 c-21 89 -21 90 -40 74 -21 -17 -73 -122 -95 -189 -17 -55 -17 -55
-28 -27 -6 16 -11 35 -11 43 0 26 -18 14 -47 -31 -15 -25 -36 -56 -45 -68 -17
-21 -17 -20 -17 48 0 39 4 124 8 190 4 66 6 122 5 124 -2 2 -24 -13 -49 -33
-25 -21 -45 -35 -45 -33 0 20 49 156 80 224 21 46 36 83 32 83 -3 0 -19 -12
-35 -27 l-30 -28 7 57 c8 73 38 154 81 218 19 28 33 50 31 50 -1 0 -27 -7 -57
-16 -63 -19 -137 -21 -168 -5 -15 9 -21 21 -21 47 0 21 -9 47 -20 61 -11 14
-20 32 -20 40 0 8 -11 29 -25 47 -14 18 -25 42 -25 52 0 20 60 83 141 148 31
24 54 54 68 86 22 52 36 65 130 123 41 25 61 43 61 57 0 37 -54 152 -92 195
-21 24 -38 45 -38 48 0 3 29 8 65 12 36 3 67 10 70 15 3 4 -6 15 -20 24 -14 9
-25 21 -25 26 0 12 75 13 156 1z m1296 -856 c0 -5 -5 -11 -11 -13 -6 -2 -11 4
-11 13 0 9 5 15 11 13 6 -2 11 -8 11 -13z m-522 -275 c0 -5 -5 -12 -11 -16
-14 -8 -33 11 -25 25 7 11 36 4 36 -9z m85 -89 c3 -5 1 -12 -5 -16 -5 -3 -10
1 -10 9 0 18 6 21 15 7z m-35 -126 c0 -8 -4 -15 -10 -15 -5 0 -10 7 -10 15 0
8 5 15 10 15 6 0 10 -7 10 -15z m-60 -55 c0 -5 -4 -10 -10 -10 -5 0 -10 5 -10
10 0 6 5 10 10 10 6 0 10 -4 10 -10z m190 -216 c0 -17 -26 -19 -36 -3 -7 12
15 31 28 23 4 -3 8 -12 8 -20z m600 -74 c0 -5 -4 -10 -10 -10 -5 0 -10 5 -10
10 0 6 5 10 10 10 6 0 10 -4 10 -10z m-1530 -25 c0 -8 -4 -15 -10 -15 -5 0
-10 7 -10 15 0 8 5 15 10 15 6 0 10 -7 10 -15z m-1229 -112 c13 -17 13 -17 -6
-3 -11 8 -22 16 -24 17 -2 2 0 3 6 3 6 0 17 -8 24 -17z m926 -59 c-3 -3 -12
-4 -19 -1 -8 3 -5 6 6 6 11 1 17 -2 13 -5z m1978 -24 c3 -5 1 -10 -4 -10 -6 0
-11 5 -11 10 0 6 2 10 4 10 3 0 8 -4 11 -10z m-1628 -6 c-3 -3 -12 -4 -19 -1
-8 3 -5 6 6 6 11 1 17 -2 13 -5z m-1267 -44 c0 -4 -7 -11 -16 -14 -9 -3 -14
-13 -11 -20 8 -20 -18 -27 -40 -11 -10 9 -13 14 -5 15 6 0 12 6 12 14 0 8 5
16 11 18 23 8 49 7 49 -2z m80 0 c13 -1 13 -2 -1 -10 -18 -11 -59 -2 -59 12 0
6 10 8 23 4 12 -3 29 -6 37 -6z m1360 -30 c0 -5 -4 -10 -10 -10 -5 0 -10 5
-10 10 0 6 5 10 10 10 6 0 10 -4 10 -10z m-1490 -70 c0 -5 -4 -10 -10 -10 -5
0 -10 5 -10 10 0 6 5 10 10 10 6 0 10 -4 10 -10z m1450 0 c0 -5 -4 -10 -10
-10 -5 0 -10 5 -10 10 0 6 5 10 10 10 6 0 10 -4 10 -10z m-1010 -15 c9 -11 10
-15 1 -15 -7 0 -19 7 -27 15 -13 13 -13 15 -1 15 8 0 20 -7 27 -15z m164 -26
c-7 -13 -24 7 -24 29 0 10 4 10 16 -2 8 -9 12 -21 8 -27z m-469 22 c3 -5 1
-12 -5 -16 -5 -3 -10 1 -10 9 0 18 6 21 15 7z m-155 -30 c-6 -12 -16 -19 -21
-15 -6 4 -4 13 7 25 21 24 29 18 14 -10z m467 -14 c-4 -12 -77 -29 -77 -19 0
3 10 16 21 28 17 19 26 21 41 13 11 -6 17 -16 15 -22z m-117 -17 c-8 -5 -19
-10 -25 -10 -5 0 -3 5 5 10 8 5 20 10 25 10 6 0 3 -5 -5 -10z m-306 -21 c-3
-5 -10 -7 -15 -3 -5 3 -7 10 -3 15 3 5 10 7 15 3 5 -3 7 -10 3 -15z"/>
<path d="M1069 1937 c-17 -18 -18 -23 -5 -25 18 -4 56 15 56 27 0 20 -31 19
-51 -2z"/>
</g>
</svg>
